<svg width="50" height="50" viewBox="0 0 50 50" fill="none" xmlns="http://www.w3.org/2000/svg">
<path d="M46.4224 24.5648L43.4681 19.6414H44.1554C45.058 19.6414 45.7964 18.903 45.7964 18.0005C45.7964 17.0979 45.058 16.3595 44.1554 16.3595H41.9675C41.9483 16.3595 41.9304 16.3646 41.9113 16.3653L40.0734 9.98162C39.6717 8.58428 38.3748 7.60779 36.9197 7.60779H13.1025C11.6475 7.60779 10.3505 8.58423 9.94882 9.98107L8.11023 16.3652C8.09138 16.3645 8.07368 16.3595 8.05468 16.3595H5.86678C4.96423 16.3595 4.22581 17.0979 4.22581 18.0004C4.22581 18.903 4.96423 19.6414 5.86678 19.6414H6.55385L3.59978 24.5653C3.29346 25.0753 3.1317 25.6589 3.13184 26.2538V33.8154C3.13184 35.6251 4.60397 37.0973 6.41372 37.0973H7.5077V40.299C7.5077 41.4064 8.4053 42.304 9.51262 42.304H10.9726C12.0799 42.304 12.9775 41.4064 12.9775 40.299V37.0973H37.0447V40.085C37.0447 41.1669 37.9217 42.0439 39.0035 42.0439H40.5556C41.6375 42.0439 42.5145 41.1669 42.5145 40.085V37.0973H43.6085C45.4182 37.0973 46.8903 35.6251 46.8903 33.8154V26.2538C46.8904 25.6588 46.7287 25.0749 46.4224 24.5648ZM44.7024 33.8154C44.7024 34.4185 44.2121 34.9094 43.6085 34.9094H6.41377C5.81019 34.9094 5.31979 34.4185 5.31979 33.8154V26.2538C5.32006 26.0555 5.37396 25.861 5.47577 25.6908L9.53647 18.9219C9.6807 18.6815 9.79394 18.4214 9.87513 18.1442L12.0513 10.5863C12.1848 10.1205 12.6175 9.79574 13.1025 9.79574H36.9197C37.4047 9.79574 37.8374 10.1205 37.9709 10.5869L40.1471 18.1442L40.1481 18.149C40.2278 18.4208 40.3416 18.6814 40.4868 18.9246L44.5464 25.6903C44.6482 25.8607 44.7021 26.0553 44.7024 26.2538V33.8154Z" fill="black"/>
<path d="M38.5705 18.5508L37.2221 13.0391C36.9825 12.0599 36.1049 11.3712 35.0968 11.3712H14.8685C13.855 11.3712 12.9742 12.0672 12.7399 13.0533L11.4301 18.5649C11.1034 19.9395 12.1458 21.2587 13.5588 21.2587H36.4452C37.8641 21.2587 38.9076 19.9291 38.5705 18.5508ZM10.9034 25.5798L7.62153 25.2373C6.976 25.1699 6.41406 25.6763 6.41406 26.3253V27.2992C6.41406 27.9034 6.90381 28.3932 7.50804 28.3932H10.7899C11.3941 28.3932 11.8839 27.9034 11.8839 27.2992V26.6678C11.8839 26.1076 11.4606 25.6379 10.9034 25.5798ZM42.4013 25.1173L39.1194 25.4598C38.5623 25.5179 38.139 25.9876 38.139 26.5478V27.1792C38.139 27.7834 38.6288 28.2732 39.233 28.2732H42.5149C43.119 28.2732 43.6088 27.7835 43.6088 27.1792V26.2054C43.6088 25.5563 43.0469 25.05 42.4013 25.1173ZM34.55 25.1113H15.4729C14.7612 25.1113 14.239 25.7802 14.4116 26.4706L14.9586 28.6585C15.0177 28.8952 15.1543 29.1053 15.3466 29.2555C15.5389 29.4056 15.7759 29.4872 16.0199 29.4872H34.003C34.247 29.4872 34.4839 29.4056 34.6762 29.2555C34.8685 29.1053 35.0051 28.8952 35.0643 28.6585L35.6113 26.4706C35.7839 25.7802 35.2616 25.1113 34.55 25.1113ZM32.6692 30.5812H17.3537C16.7495 30.5812 16.2597 31.0709 16.2597 31.6751C16.2597 32.2793 16.7495 32.7691 17.3537 32.7691H32.6692C33.2734 32.7691 33.7631 32.2793 33.7631 31.6751C33.7631 31.0709 33.2734 30.5812 32.6692 30.5812Z" fill="black"/>
</svg>
