<svg width="54" height="50" viewBox="0 0 54 50" fill="none" xmlns="http://www.w3.org/2000/svg">
<path d="M14.6787 22.9293H22.1623V29.8285H14.6787V22.9293ZM42.3987 26.9045C40.5716 25.1644 37.5513 25.1191 35.6652 26.8035C34.7511 27.6192 34.2365 28.714 34.2161 29.8863C34.2012 30.7217 34.4489 31.5207 34.9067 32.2183L33.3611 33.5977L32.0049 32.3061C31.594 31.9148 30.9165 31.9052 30.4931 32.283C30.0687 32.6617 30.0578 33.2859 30.4681 33.6767L31.8247 34.9687L30.8119 35.8726L28.6149 33.7806C28.2046 33.3893 27.5276 33.3802 27.1032 33.7584C26.6793 34.1367 26.6683 34.7608 27.0791 35.1521L29.2755 37.2435L28.6337 37.8163C28.2093 38.1951 28.1983 38.8192 28.6086 39.21C28.7082 39.3051 28.8276 39.3807 28.9596 39.4323C29.0917 39.4839 29.2336 39.5104 29.377 39.5103C29.6545 39.5106 29.9211 39.4112 30.1203 39.2331L31.5305 37.9747C31.5308 37.9744 31.5311 37.9744 31.5314 37.9742C31.5316 37.9739 31.5316 37.9737 31.5319 37.9735L34.0794 35.7001L34.0798 35.6998L34.0801 35.6994L36.3939 33.6345C37.1356 34.079 37.9937 34.3334 38.9001 34.3471C38.9262 34.3476 38.9528 34.3476 38.9794 34.3476C40.2218 34.3476 41.3943 33.9101 42.289 33.1118C43.2031 32.2961 43.7177 31.2012 43.7381 30.0289C43.759 28.8565 43.2835 27.7467 42.3987 26.9045Z" fill="black"/>
<path d="M48.889 32.2925C48.889 28.7359 47.236 25.5361 44.6127 23.2852V20.1318L47.1314 22.0872C47.3238 22.2369 47.5676 22.3189 47.8194 22.3187C47.9753 22.3188 48.1294 22.2875 48.2708 22.2269C48.4122 22.1663 48.5375 22.0779 48.6379 21.9679C49.0179 21.5516 48.9599 20.9298 48.5084 20.579L29.5803 5.88409C28.376 4.94902 26.634 4.95286 25.437 5.89275L17.8856 11.8098V8.14547C17.8856 6.51502 16.4469 5.1887 14.6783 5.1887C12.9097 5.1887 11.4711 6.51502 11.4711 8.14547V16.8362L5.43347 21.5679C4.98348 21.9202 4.92868 22.5425 5.31133 22.9568C5.52277 23.1864 5.82341 23.3043 6.12621 23.3043C6.37102 23.3043 6.61691 23.2272 6.81787 23.0694L9.33291 21.0983V39.9553C9.33291 41.5857 10.7716 42.912 12.5402 42.912H28.784C30.7659 43.9856 33.0652 44.6124 35.5254 44.6124C38.262 44.6124 40.8072 43.8475 42.9281 42.5413C43.2091 42.4001 43.4705 42.2312 43.6929 42.022C46.8471 39.7665 48.889 36.2492 48.889 32.2925ZM11.4711 39.9553V19.4227L13.2324 18.0423C13.2434 18.0337 13.2476 18.021 13.2583 18.012C13.3156 17.9635 13.3563 17.904 13.4011 17.845C13.437 17.7975 13.4789 17.7548 13.5047 17.7033C13.5314 17.6504 13.5398 17.5918 13.556 17.5343C13.5751 17.4661 13.5977 17.4007 13.6007 17.3305C13.6013 17.3169 13.6092 17.3054 13.6092 17.2916V8.14552C13.6092 7.6022 14.089 7.15993 14.6783 7.15993C15.2677 7.15993 15.7474 7.6022 15.7474 8.14552V13.9407C15.7474 13.9888 15.7699 14.0299 15.7771 14.0762C15.7875 14.1448 15.7949 14.2116 15.8212 14.2776C15.848 14.3449 15.8899 14.4013 15.9312 14.4608C15.9578 14.4993 15.9691 14.5431 16.0022 14.5788C16.0116 14.589 16.0253 14.593 16.0351 14.6028C16.0877 14.6555 16.152 14.693 16.2159 14.7341C16.2677 14.7674 16.3144 14.8063 16.3707 14.8303C16.4269 14.8543 16.4891 14.8618 16.55 14.8767C16.6254 14.8949 16.698 14.916 16.7757 14.9187C16.7901 14.9193 16.8021 14.9263 16.8166 14.9263C16.8672 14.9263 16.9105 14.906 16.9592 14.8998C17.0356 14.8902 17.1098 14.883 17.1833 14.858C17.2552 14.8335 17.3155 14.7953 17.3792 14.7578C17.4215 14.7331 17.4696 14.7223 17.5088 14.6914L26.822 7.39428C27.2208 7.08099 27.8019 7.08049 28.2028 7.39189L42.4902 18.484C42.4882 18.509 42.4745 18.5303 42.4745 18.5557V21.7894C40.4467 20.6448 38.0724 19.9727 35.5255 19.9727C28.1567 19.9727 22.1619 25.4993 22.1619 32.2926C22.1619 35.6606 23.6382 38.7148 26.0222 40.9409H12.5402C11.9508 40.9409 11.4711 40.4986 11.4711 39.9553ZM24.3001 32.2925C24.3001 26.5864 29.3359 21.9438 35.5255 21.9438C41.715 21.9438 46.7509 26.5864 46.7509 32.2925C46.7509 37.9987 41.715 42.6413 35.5255 42.6413C29.3359 42.6413 24.3001 37.9987 24.3001 32.2925Z" fill="black"/>
</svg>
